<svg xmlns="http://www.w3.org/2000/svg" xmlns:xlink="http://www.w3.org/1999/xlink" width="600" zoomAndPan="magnify" viewBox="0 0 450 449.999984" height="600" preserveAspectRatio="xMidYMid meet" version="1.0"><defs><filter x="0%" y="0%" width="100%" height="100%" id="28c74d46f0"><feColorMatrix values="0 0 0 0 1 0 0 0 0 1 0 0 0 0 1 0 0 0 1 0" color-interpolation-filters="sRGB"/></filter><mask id="c974a00cfc"><g filter="url(#28c74d46f0)"><rect x="-45" width="540" fill="#000000" y="-44.999998" height="539.99998" fill-opacity="0.49"/></g></mask><clipPath id="ea81d79aa4"><path d="M 0 0 L 450 0 L 450 450 L 0 450 Z M 0 0 " clip-rule="nonzero"/></clipPath><clipPath id="aeed67e793"><rect x="0" width="450" y="0" height="450"/></clipPath><clipPath id="e3ff675e00"><path d="M 198 9.097656 L 213 9.097656 L 213 128 L 198 128 Z M 198 9.097656 " clip-rule="nonzero"/></clipPath><clipPath id="1a62318896"><path d="M 321 182 L 447.457031 182 L 447.457031 228 L 321 228 Z M 321 182 " clip-rule="nonzero"/></clipPath><clipPath id="53794c04bc"><path d="M 192 312 L 229 312 L 229 441.097656 L 192 441.097656 Z M 192 312 " clip-rule="nonzero"/></clipPath><clipPath id="0198018809"><path d="M 73.789062 366 L 101 366 L 101 388 L 73.789062 388 Z M 73.789062 366 " clip-rule="nonzero"/></clipPath><clipPath id="5dd2180c67"><path d="M 73.789062 366 L 101 366 L 101 381 L 73.789062 381 Z M 73.789062 366 " clip-rule="nonzero"/></clipPath><clipPath id="0ca894a518"><path d="M 192 43.449219 L 219 43.449219 L 219 58 L 192 58 Z M 192 43.449219 " clip-rule="nonzero"/></clipPath><clipPath id="ed9ca05205"><path d="M 368.714844 80.21875 L 414.253906 80.21875 L 414.253906 116.035156 L 368.714844 116.035156 Z M 368.714844 80.21875 " clip-rule="nonzero"/></clipPath><clipPath id="5fea7717e8"><path d="M 216.761719 335.59375 L 284.082031 335.59375 L 284.082031 406.449219 L 216.761719 406.449219 Z M 216.761719 335.59375 " clip-rule="nonzero"/></clipPath></defs><rect x="-45" width="540" fill="#ffffff" y="-44.999998" height="539.99998" fill-opacity="1"/><rect x="-45" width="540" fill="#ffffff" y="-44.999998" height="539.99998" fill-opacity="1"/><g mask="url(#c974a00cfc)"><g transform="matrix(1, 0, 0, 1, 0, 0)"><g clip-path="url(#aeed67e793)"><g clip-path="url(#ea81d79aa4)"><rect x="-99" width="648" fill="#ff5757" height="647.999977" y="-98.999996" fill-opacity="1"/></g></g></g></g><path fill="#e2ecf8" d="M 290.148438 195.0625 C 287.800781 195.289062 286.476562 195.085938 286.238281 194.410156 C 298.574219 190.035156 318.125 182.492188 346.226562 171.53125 C 318.539062 182.996094 300.128906 190.71875 290.148438 195.0625 " fill-opacity="1" fill-rule="nonzero"/><path fill="#e2ecf8" d="M 268.59375 176.03125 C 269.113281 175.886719 271.226562 174.359375 274.835938 171.5625 C 262.324219 181.972656 259.746094 183.914062 268.59375 176.03125 " fill-opacity="1" fill-rule="nonzero"/><path fill="#e2ecf8" d="M 290.148438 195.0625 C 291.730469 194.910156 293.75 194.574219 296.246094 194.050781 C 278.792969 200.558594 276.027344 201.203125 290.148438 195.0625 " fill-opacity="1" fill-rule="nonzero"/><path fill="#e2ecf8" d="M 247.96875 47.613281 C 240.726562 93.070312 236.496094 121.746094 235.542969 136.039062 C 233.78125 135.214844 238.050781 107.058594 247.96875 47.613281 " fill-opacity="1" fill-rule="nonzero"/><path fill="#e2ecf8" d="M 251.757812 130.238281 C 251.785156 130.515625 251.820312 130.777344 251.867188 131.003906 C 252.164062 130.074219 252.46875 129.113281 252.796875 128.101562 C 252.433594 128.859375 252.085938 129.570312 251.757812 130.238281 Z M 259.851562 126.195312 C 250.378906 144.730469 246.933594 149.734375 248.632812 142.21875 C 241.367188 156.402344 240.035156 154.269531 242.9375 137.851562 C 236.953125 150.246094 234.582031 150.460938 235.542969 136.039062 C 236.363281 136.425781 238.5 130.863281 241.992188 119.726562 C 236.847656 150.152344 245.066406 125.703125 273.402344 33.445312 C 263.433594 71.417969 256.804688 97.894531 253.710938 113.871094 C 259.054688 96.917969 267.847656 70.421875 280.277344 33.386719 C 263.308594 88.832031 255.078125 118.660156 256.574219 125.535156 C 262.546875 112.40625 270.449219 94.207031 280.59375 70.515625 C 272.222656 92.753906 265.785156 110.175781 261.257812 123.109375 C 260.359375 124.519531 259.527344 125.777344 258.757812 126.875 C 259.085938 126.726562 259.449219 126.503906 259.851562 126.195312 " fill-opacity="1" fill-rule="nonzero"/><g clip-path="url(#e3ff675e00)"><path fill="#e2ecf8" d="M 203.589844 87.71875 C 203.09375 71.03125 201.261719 44.960938 198.386719 9.113281 C 206.863281 81.816406 211.175781 117.28125 212.105469 119.605469 C 212.320312 135.925781 209.835938 126.152344 203.589844 87.71875 " fill-opacity="1" fill-rule="nonzero"/></g><path fill="#e2ecf8" d="M 202.195312 109.746094 C 201.253906 93.203125 198.957031 68.929688 195.542969 36.304688 C 198.722656 57.082031 201.390625 74.175781 203.589844 87.71875 C 203.972656 100.652344 203.554688 107.945312 202.195312 109.746094 " fill-opacity="1" fill-rule="nonzero"/><path fill="#e2ecf8" d="M 212.105469 119.605469 C 212.066406 116.496094 211.925781 112.445312 211.695312 107.460938 C 212.316406 116.386719 212.46875 120.515625 212.105469 119.605469 " fill-opacity="1" fill-rule="nonzero"/><path fill="#e2ecf8" d="M 191.101562 124.421875 C 191.863281 131.945312 191.746094 136.324219 190.613281 137.488281 C 191.773438 144.835938 190.324219 145.136719 186.28125 139.148438 C 191.894531 153.398438 191.265625 153.605469 184.773438 141.375 C 184.929688 142.132812 185.050781 142.8125 185.152344 143.445312 C 192.65625 166.945312 190.722656 171.21875 179.5625 161.746094 C 188.472656 185.71875 173.1875 173.671875 113.707031 117.257812 C 167.542969 173.671875 177.722656 185.71875 151.25 163.636719 C 170.542969 178.589844 153.1875 159.410156 87.015625 90.613281 C 153.1875 153.769531 170.542969 167.839844 153.433594 136.972656 C 162.578125 145.050781 167.367188 147.441406 167.882812 143.496094 C 166.882812 141.953125 165.109375 139.148438 162.570312 135.109375 C 163.574219 136.527344 164.488281 137.800781 165.355469 139 C 166.484375 140.875 167.332031 142.289062 167.90625 143.261719 C 167.925781 143.023438 167.941406 142.78125 167.933594 142.503906 C 167.15625 141.46875 166.289062 140.289062 165.355469 139 C 158.554688 127.71875 141.585938 99.960938 113.109375 53.523438 C 140.109375 95.398438 156.765625 120.59375 164.453125 130.039062 C 162.953125 126.148438 160.960938 121.464844 158.5 116.011719 C 152.050781 103.519531 143.523438 87.339844 132.835938 67.226562 C 137.558594 75.328125 141.914062 82.757812 145.949219 89.601562 C 140.90625 79.34375 135.011719 67.601562 128.246094 54.28125 C 146.941406 86.761719 160.417969 109.90625 169.425781 124.632812 C 176.421875 133.507812 177.378906 130.433594 172.425781 114.210938 C 166.539062 100.449219 156.675781 76.734375 142.523438 42.527344 C 151.839844 63.71875 159.621094 81.179688 166.058594 95.152344 C 160.578125 79.570312 152.746094 58.585938 142.566406 31.796875 C 160.972656 75.066406 173.183594 103.289062 180.035156 117.644531 C 178.578125 107.316406 168.828125 73.632812 150.960938 14.394531 C 161.292969 43.304688 169.480469 65.625 175.796875 81.484375 C 172.585938 70.511719 168.867188 58.003906 164.632812 43.882812 C 170.042969 61.117188 174.605469 75.703125 178.355469 87.804688 C 190.414062 117.042969 194.503906 118.34375 192.976562 92.738281 C 197.566406 106.148438 200.5625 111.914062 202.195312 109.746094 C 203.996094 141.355469 200.851562 144.777344 191.101562 124.421875 " fill-opacity="1" fill-rule="nonzero"/><path fill="#e2ecf8" d="M 132.714844 165.875 C 120.394531 155.371094 95.503906 137.503906 57.082031 110.703125 C 110.226562 146.9375 134.949219 164.480469 132.714844 165.875 " fill-opacity="1" fill-rule="nonzero"/><path fill="#e2ecf8" d="M 102.261719 181.742188 C 103.148438 181.988281 104.011719 182.230469 104.855469 182.460938 C 104.457031 182.449219 104.027344 182.425781 103.585938 182.402344 C 106.789062 184.011719 109.167969 185.335938 110.734375 186.375 C 107.820312 185.097656 104.5625 183.699219 101 182.199219 C 97.792969 181.886719 93.804688 181.328125 88.953125 180.507812 C 96.960938 183.914062 101.878906 186.375 103.664062 187.941406 C 88.671875 181.617188 66.621094 173.367188 37.214844 162.773438 C 61.398438 169.96875 80.597656 175.609375 95.023438 179.707031 C 82.484375 174.515625 66.601562 168.175781 47.203125 160.5625 C 73.332031 169.183594 93.628906 175.726562 108.578125 180.191406 C 105.546875 180.144531 101.328125 179.636719 95.835938 178.667969 C 98.226562 179.78125 100.367188 180.804688 102.261719 181.742188 " fill-opacity="1" fill-rule="nonzero"/><path fill="#e2ecf8" d="M 110.609375 178.707031 C 111.402344 179.046875 112.160156 179.375 112.898438 179.695312 C 113.070312 179.628906 113.265625 179.566406 113.402344 179.484375 C 112.527344 179.246094 111.597656 178.984375 110.609375 178.707031 Z M 128.476562 175.679688 C 145.992188 187.398438 145.277344 190.175781 123.175781 184.347656 C 133.84375 189.53125 128.191406 188.894531 104.855469 182.460938 C 108.761719 182.570312 110.613281 182.011719 110.34375 180.71875 C 109.769531 180.550781 109.167969 180.371094 108.578125 180.191406 C 109.121094 180.203125 109.632812 180.199219 110.101562 180.175781 C 107.246094 174.941406 78.171875 160.546875 22.375 134.839844 C 67.304688 154.292969 96.789062 167.257812 111.800781 174.496094 C 103.761719 166.464844 75.113281 149.664062 25.363281 122.105469 C 115.980469 166.101562 142.375 177.921875 113.429688 158.167969 C 125.242188 163.863281 131.707031 166.503906 132.714844 165.875 C 146.386719 177.535156 144.570312 180.113281 128.476562 175.679688 " fill-opacity="1" fill-rule="nonzero"/><path fill="#e2ecf8" d="M 110.734375 186.375 C 131.445312 195.484375 135.71875 199.105469 124.585938 198.339844 C 129.949219 202.144531 128.742188 204.382812 121.238281 205.445312 C 154.46875 212.011719 159.753906 215.039062 143.730469 217.183594 C 172.429688 220.539062 156.84375 222.074219 82.300781 226.105469 C 156.84375 226.179688 172.429688 228.367188 143.867188 239.117188 C 166.8125 234.859375 145.609375 239.167969 60.601562 257.300781 C 141.5 239.167969 158.980469 234.859375 124.898438 238.808594 C 153.648438 228.398438 130.835938 226.246094 40.058594 225.765625 C 130.835938 222.136719 153.648438 220.574219 124.734375 217.214844 C 148.140625 215.078125 147.40625 212.105469 118.679688 205.742188 C 116.054688 205.984375 112.882812 206.128906 109.15625 206.183594 C 126.402344 210.46875 126.527344 211.933594 107.738281 210.957031 C 105.511719 210.328125 98.75 209.136719 87.519531 207.351562 C 102.625 207.152344 107.324219 205.570312 101.410156 202.15625 C 90.136719 199.925781 76.433594 197.371094 60.121094 194.417969 C 75.511719 197.070312 88.789062 199.402344 100.125 201.464844 C 89.5 196.144531 56.328125 186.867188 -0.0742188 172.210938 C 44.417969 181.203125 74.449219 186.957031 90.503906 189.082031 C 73.199219 184.015625 48.703125 176.957031 16.59375 167.765625 C 61.933594 179.359375 90.863281 186.417969 104.25 188.574219 C 104.121094 188.382812 103.925781 188.171875 103.664062 187.941406 C 104.347656 188.226562 105.015625 188.511719 105.671875 188.792969 C 113.25 189.902344 114.867188 189.128906 110.734375 186.375 " fill-opacity="1" fill-rule="nonzero"/><path fill="#e2ecf8" d="M 151.867188 298.246094 C 140.605469 309.503906 124.898438 326.351562 104.023438 349.164062 C 126.640625 324.296875 142.359375 307.410156 151.867188 298.246094 " fill-opacity="1" fill-rule="nonzero"/><path fill="#e2ecf8" d="M 193.90625 312.414062 C 194 311.957031 194.082031 311.546875 194.171875 311.105469 C 198.238281 298.550781 197.984375 299.546875 193.90625 312.414062 " fill-opacity="1" fill-rule="nonzero"/><path fill="#e2ecf8" d="M 164.71875 286.167969 C 186.59375 260.085938 188.101562 259.207031 171.75 281.296875 C 173.894531 280.390625 174.921875 281.039062 174.933594 283.179688 C 175.058594 283.128906 175.160156 283.105469 175.277344 283.070312 C 175.160156 283.1875 175.050781 283.304688 174.933594 283.425781 C 174.875 285.425781 174.039062 288.578125 172.476562 292.886719 C 174.433594 290.585938 176.164062 288.640625 177.6875 287.042969 C 178.1875 283.695312 177.425781 282.355469 175.277344 283.070312 C 199.566406 257.796875 204.839844 260.433594 196.535156 295.507812 C 196.519531 296.175781 196.464844 296.960938 196.378906 297.824219 C 203.203125 278.132812 203.117188 279.0625 195.519531 303.964844 C 195.160156 306.070312 194.710938 308.457031 194.171875 311.105469 C 189.851562 324.441406 180.667969 353.058594 165.964844 399.164062 C 190.527344 313.625 194.714844 293.488281 175.257812 328.6875 C 175.675781 326.785156 176.015625 325.070312 176.300781 323.472656 C 189.328125 297.84375 195.558594 288.203125 196.425781 293.476562 C 197.117188 283.707031 191.476562 291.847656 176.609375 321.632812 C 176.515625 322.222656 176.414062 322.832031 176.300781 323.472656 C 171.480469 332.949219 165.75 344.574219 159 358.476562 C 159.582031 357.046875 160.132812 355.679688 160.691406 354.292969 C 158.4375 359 156.070312 363.949219 153.570312 369.203125 C 164.070312 344.347656 171.808594 325.714844 176.871094 312.6875 C 174.257812 304.136719 155.761719 329.285156 115.433594 390.066406 C 163.527344 307.574219 175.605469 284.855469 154.191406 309.65625 C 156.148438 306.230469 157.78125 303.261719 159.101562 300.726562 C 155.011719 305.332031 150.601562 310.375 145.839844 315.863281 C 152.078125 307.585938 157.546875 300.316406 162.242188 294.050781 C 162.328125 293.824219 162.429688 293.582031 162.5 293.375 C 153.121094 302.652344 139.183594 318.121094 119.917969 340.128906 C 137.367188 319.027344 151.019531 302.554688 161.082031 290.511719 C 159.289062 291.464844 156.234375 294.035156 151.867188 298.246094 C 157.078125 293.039062 161.34375 289.019531 164.71875 286.167969 " fill-opacity="1" fill-rule="nonzero"/><path fill="#e2ecf8" d="M 347.941406 357.84375 C 327.917969 336.816406 312.328125 320.652344 300.726562 309.125 C 311.121094 319.304688 326.742188 335.515625 347.941406 357.84375 " fill-opacity="1" fill-rule="nonzero"/><path fill="#e2ecf8" d="M 278.777344 300.210938 C 273.773438 290.523438 272.679688 286.222656 276.082031 287.554688 C 254.683594 262.238281 265.949219 272.300781 318.042969 323.746094 C 303.832031 308.609375 292.683594 296.605469 284.40625 287.378906 C 283.460938 287.242188 286.070312 290.445312 292.011719 296.84375 C 282.476562 286.683594 277.78125 281.164062 278.257812 280.425781 C 261.785156 261.453125 262.570312 258.882812 278.578125 268.226562 C 268.261719 256.074219 269.773438 253.160156 286.78125 259.808594 C 286.632812 259.414062 286.550781 259.054688 286.519531 258.722656 C 282.421875 255.730469 282.496094 255.191406 286.980469 257.160156 C 288.625 255.40625 294.589844 256.066406 305.429688 259.121094 C 308.484375 261.042969 313.226562 263.761719 319.667969 267.3125 C 289.734375 254.917969 312.796875 268.3125 397.535156 315 C 351.539062 292.71875 323.75 280.117188 312.308594 277.792969 C 325.339844 286.226562 343.855469 298.082031 368.382812 313.75 C 339.839844 297.070312 319.402344 285.472656 306.242188 278.90625 C 305.859375 281.253906 309.5625 286.324219 317.152344 294.226562 C 298.195312 283.542969 293.804688 283.492188 304.089844 295.5625 C 300.054688 291.628906 296.5 288.089844 293.449219 284.960938 C 282.679688 277.921875 279.351562 277.15625 283.835938 283.601562 C 290.496094 288.460938 303.1875 298.792969 322.246094 314.734375 C 332.617188 325.121094 346.390625 338.445312 363.640625 354.925781 C 323.726562 319.769531 299.699219 298.890625 289.683594 291.003906 C 298.558594 301.515625 315.074219 319.242188 339.597656 345.105469 C 277.625 283.996094 260.632812 268.195312 276.171875 287.601562 C 279.648438 289.027344 287.644531 296.117188 300.726562 309.125 C 281.039062 289.839844 280.144531 292.234375 295.808594 315.882812 C 270.5 289.859375 283.828125 313.433594 335.78125 395.542969 C 297.945312 342.703125 277.96875 316.511719 272.816406 316.550781 C 258.339844 284.710938 260.183594 280.945312 278.777344 300.210938 " fill-opacity="1" fill-rule="nonzero"/><path fill="#e2ecf8" d="M 257.789062 319.394531 C 248.230469 290.257812 251.839844 291.460938 272.503906 325.375 C 273.144531 327.90625 274.0625 330.964844 275.265625 334.578125 C 251.839844 298.671875 257.722656 319.839844 289.285156 405.890625 C 253.734375 315.851562 244.238281 291.070312 257.789062 319.394531 " fill-opacity="1" fill-rule="nonzero"/><path fill="#e2ecf8" d="M 272.816406 316.550781 C 278.617188 329.304688 287.019531 346.539062 298.035156 368.628906 C 287.644531 350.722656 279.1875 336.347656 272.503906 325.375 C 271.019531 319.496094 271.09375 316.566406 272.816406 316.550781 " fill-opacity="1" fill-rule="nonzero"/><g clip-path="url(#1a62318896)"><path fill="#e2ecf8" d="M 338.582031 213.964844 C 314.515625 211.125 315.355469 206.644531 342.648438 198.078125 C 355.199219 196.40625 389.261719 191.144531 445.265625 182.382812 C 349.339844 202.003906 322.851562 210.109375 366.917969 214.605469 C 323.203125 220.84375 350.046875 223.476562 447.238281 227.367188 C 436.269531 227.378906 426.136719 227.398438 416.832031 227.433594 C 324.972656 223.324219 301.28125 220.648438 338.582031 213.964844 " fill-opacity="1" fill-rule="nonzero"/></g><path fill="#e2ecf8" d="M 373.734375 227.796875 C 385.300781 227.613281 399.652344 227.5 416.832031 227.433594 C 419.546875 227.554688 422.316406 227.679688 425.152344 227.804688 C 404.648438 227.730469 387.527344 227.71875 373.734375 227.796875 " fill-opacity="1" fill-rule="nonzero"/><path fill="#e2ecf8" d="M 350.148438 195.808594 C 347.453125 196.597656 344.960938 197.351562 342.648438 198.078125 C 333.320312 199.316406 335.882812 198.574219 350.148438 195.808594 " fill-opacity="1" fill-rule="nonzero"/><path fill="#e2ecf8" d="M 422.734375 177.210938 C 391.53125 184.714844 367.699219 190.71875 350.996094 195.566406 C 307.964844 201.65625 330.789062 196.335938 422.734375 177.210938 " fill-opacity="1" fill-rule="nonzero"/><path fill="#e2ecf8" d="M 352.601562 195.335938 C 351.746094 195.5 350.933594 195.65625 350.148438 195.808594 C 350.425781 195.730469 350.714844 195.648438 350.996094 195.566406 C 351.523438 195.488281 352.054688 195.414062 352.601562 195.335938 " fill-opacity="1" fill-rule="nonzero"/><path fill="#e2ecf8" d="M 353.1875 233.261719 C 317.609375 229.488281 323.808594 228.074219 373.734375 227.796875 C 333.753906 228.433594 327.195312 229.929688 353.1875 233.261719 " fill-opacity="1" fill-rule="nonzero"/><path fill="#e2ecf8" d="M 13.414062 202.972656 C 60.222656 207.351562 91.253906 210.097656 107.738281 210.957031 C 114.082031 212.742188 83.402344 209.914062 13.414062 202.972656 " fill-opacity="1" fill-rule="nonzero"/><path fill="#e2ecf8" d="M 109.625 307.050781 C 114.8125 302.628906 118.75 299.125 121.492188 296.480469 C 123.1875 295.902344 119.222656 299.410156 109.625 307.050781 " fill-opacity="1" fill-rule="nonzero"/><path fill="#e2ecf8" d="M 5.101562 323.523438 C 95.320312 278.441406 122.675781 264.167969 85.496094 279.410156 C 92.484375 275.789062 97.65625 273 101.011719 271.027344 C 123.082031 264.90625 124.425781 268.351562 106.523438 282.304688 C 133.097656 271.167969 131.226562 275.558594 100.390625 298.003906 C 97.308594 299.410156 93.417969 301.320312 88.648438 303.777344 C 122.675781 274.917969 95.320312 284.082031 5.101562 323.523438 " fill-opacity="1" fill-rule="nonzero"/><path fill="#e2ecf8" d="M 103.777344 301.429688 C 89.828125 309.496094 69.304688 322.003906 41.949219 338.941406 C 67.214844 321.558594 86.664062 308 100.390625 298.003906 C 110.511719 293.394531 111.578125 294.484375 103.777344 301.429688 " fill-opacity="1" fill-rule="nonzero"/><path fill="#e2ecf8" d="M 101.011719 271.027344 C 84.3125 275.65625 55.746094 285.765625 14.640625 300.957031 C 89.375 271.597656 117.691406 261.210938 101.011719 271.027344 " fill-opacity="1" fill-rule="nonzero"/><path fill="#e2ecf8" d="M 121.492188 296.480469 C 117.828125 297.730469 87.597656 318.175781 30.210938 357.582031 C 69.070312 328.976562 93.738281 310.367188 103.777344 301.429688 C 125.503906 288.863281 131.1875 287.128906 121.492188 296.480469 " fill-opacity="1" fill-rule="nonzero"/><path fill="#e2ecf8" d="M 229.980469 402.722656 C 229.320312 395.359375 228.691406 388.472656 228.085938 382.035156 C 228.207031 369.414062 228.492188 359.484375 229 352.230469 C 229.082031 365.570312 229.429688 382.359375 229.980469 402.722656 " fill-opacity="1" fill-rule="nonzero"/><g clip-path="url(#53794c04bc)"><path fill="#e2ecf8" d="M 212.242188 332.894531 C 217.765625 295.59375 221.296875 309.761719 228.085938 382.035156 C 227.941406 397.605469 228.042969 417.265625 228.3125 441.09375 C 221.566406 343.28125 218.085938 315.496094 212.257812 354.425781 C 209.894531 309.519531 205.179688 331.320312 192.316406 423.285156 C 205.179688 325.679688 209.894531 298.769531 212.242188 332.894531 " fill-opacity="1" fill-rule="nonzero"/></g><path fill="#e2ecf8" d="M 265.402344 421.5625 C 250.695312 359.796875 242.910156 330.101562 240.226562 331.632812 C 237.277344 299.113281 244.035156 326.234375 265.402344 421.5625 " fill-opacity="1" fill-rule="nonzero"/><path fill="#e2ecf8" d="M 240.3125 332.546875 C 240.234375 332.273438 240.160156 332.015625 240.085938 331.75 C 240.128906 331.699219 240.179688 331.660156 240.226562 331.632812 C 240.253906 331.9375 240.28125 332.234375 240.3125 332.546875 " fill-opacity="1" fill-rule="nonzero"/><path fill="#e2ecf8" d="M 240.085938 331.75 C 238.964844 332.949219 238.863281 340.410156 239.617188 354.074219 C 233.589844 332.511719 230.425781 331.691406 229 352.230469 C 228.714844 306.96875 231.515625 301.484375 240.085938 331.75 " fill-opacity="1" fill-rule="nonzero"/><path fill="#e2ecf8" d="M 378.621094 284.964844 C 344.253906 271.964844 320.292969 263.308594 305.429688 259.121094 C 291.265625 250.207031 313.992188 258.757812 378.621094 284.964844 " fill-opacity="1" fill-rule="nonzero"/><path fill="#e2ecf8" d="M 340.445312 330.011719 C 333.824219 324.433594 327.78125 319.359375 322.246094 314.734375 C 314.0625 306.527344 308.003906 300.160156 304.089844 295.5625 C 313.5 304.75 325.574219 316.144531 340.445312 330.011719 " fill-opacity="1" fill-rule="nonzero"/><path fill="#e2ecf8" d="M 315.953125 144.082031 C 301.816406 154.636719 291.515625 161.988281 284.671875 166.25 C 275.433594 177.90625 279.222656 179.246094 295.128906 172.78125 C 271.921875 191.34375 290.304688 183.125 366.621094 144.882812 C 309.773438 176.429688 285.089844 191.097656 286.238281 194.410156 C 267.433594 201.082031 265.457031 200.378906 275.875 193.085938 C 258.441406 196.933594 259.191406 191.105469 281.296875 168.269531 C 277.832031 170.222656 275.679688 170.980469 274.695312 170.628906 C 272.257812 172.777344 270.238281 174.570312 268.59375 176.03125 C 267.96875 176.203125 269.714844 174.324219 274.125 170.109375 C 273.640625 168.695312 275.644531 164.882812 279.859375 158.761719 C 267.074219 166.667969 263.035156 165.4375 267.941406 152.558594 C 260.097656 158.78125 257.15625 157.636719 258.96875 147.964844 C 258.773438 148.246094 258.804688 148.066406 259.070312 147.421875 C 259.179688 146.878906 259.3125 146.292969 259.449219 145.699219 C 250.835938 158.136719 251.058594 152.558594 260.316406 125.816406 C 260.15625 125.957031 260 126.082031 259.851562 126.195312 C 260.195312 125.523438 260.53125 124.871094 260.890625 124.160156 C 261.011719 123.808594 261.128906 123.46875 261.257812 123.109375 C 261.53125 122.679688 261.8125 122.230469 262.097656 121.769531 C 268.414062 109.257812 276.96875 91.742188 288.007812 68.898438 C 280.792969 86.46875 274.882812 101.171875 270.289062 113.222656 C 266.546875 118.710938 263.574219 122.601562 261.359375 124.839844 C 256.652344 139.433594 257.304688 141.347656 264.316406 129.574219 C 265.964844 124.796875 267.949219 119.367188 270.289062 113.222656 C 270.453125 112.988281 270.609375 112.757812 270.773438 112.515625 C 269.0625 117.625 267.964844 121.46875 267.484375 124.097656 C 274.859375 111.042969 286.851562 88.160156 304.074219 54.832031 C 287.289062 88.953125 275.476562 113.078125 268.136719 128.242188 C 272.363281 127.941406 291.058594 100.113281 327.554688 43.082031 C 318.449219 59.222656 310.628906 73.21875 304.089844 85.164062 C 306.15625 81.9375 308.277344 78.625 310.515625 75.136719 C 306.1875 82.410156 302.179688 89.179688 298.484375 95.480469 C 289.632812 111.933594 283.792969 123.613281 280.996094 130.777344 C 291.015625 117.59375 309.195312 93.027344 336.464844 56.019531 C 309.625 96.324219 293.433594 121.863281 288.085938 134.371094 C 289.132812 133.453125 290.242188 132.453125 291.46875 131.289062 C 289.632812 133.894531 288.046875 136.15625 286.671875 138.152344 C 286.234375 139.601562 286.074219 140.726562 286.140625 141.59375 C 297.4375 128.886719 314.824219 108.363281 339.246094 79.28125 C 311.851562 112.265625 294.472656 133.046875 286.25 142.28125 C 287.175781 145.34375 292.929688 142.871094 303.621094 135.3125 C 296.011719 145.222656 293.015625 150.382812 294.933594 150.824219 C 305.609375 141.0625 319.6875 128.28125 337.519531 112.148438 C 324.539062 124.699219 313.816406 135.21875 305.269531 143.882812 C 302.992188 145.867188 300.835938 147.746094 298.753906 149.566406 C 299.402344 149.21875 300.148438 148.785156 300.945312 148.300781 C 302.324219 146.882812 303.753906 145.417969 305.269531 143.882812 C 308.136719 141.382812 311.15625 138.753906 314.332031 135.984375 C 310.050781 140.050781 306.078125 143.847656 302.363281 147.429688 C 313.648438 140.234375 337.058594 121.796875 373.941406 91.964844 C 348.117188 114.824219 328.917969 132.019531 315.953125 144.082031 " fill-opacity="1" fill-rule="nonzero"/><path fill="#e2ecf8" d="M 306.300781 161.1875 C 288.117188 173.511719 284.289062 175.050781 295.941406 164.441406 C 293.957031 167.585938 297.5 166.363281 306.300781 161.1875 " fill-opacity="1" fill-rule="nonzero"/><path fill="#e2ecf8" d="M 295.941406 164.441406 C 297.777344 161.53125 304.367188 154.859375 315.953125 144.082031 C 326.253906 136.386719 338.558594 127.019531 353.085938 115.875 C 323.988281 140.109375 305.140625 156.0625 295.941406 164.441406 " fill-opacity="1" fill-rule="nonzero"/><path fill="#e55134" d="M 115.019531 338.4375 C 110.769531 338.4375 105.742188 343.3125 104.441406 347.730469 C 102.582031 354.042969 104.800781 357.792969 108.109375 357.792969 C 108.113281 357.792969 108.113281 357.792969 108.113281 357.792969 C 112.738281 357.789062 121.089844 343.679688 119.375 340.992188 C 118.222656 339.183594 116.679688 338.4375 115.019531 338.4375 " fill-opacity="1" fill-rule="nonzero"/><g clip-path="url(#0198018809)"><path fill="#376a2c" d="M 94.695312 369.234375 L 90.6875 366.933594 L 90.804688 369.085938 L 84.5625 367.105469 L 84.929688 369.09375 L 79.128906 368.726562 L 79.96875 370.667969 L 73.820312 372.148438 L 78.199219 376.796875 L 76.421875 377.941406 L 81.441406 380.863281 L 80.03125 382.316406 L 86.316406 384.148438 L 85.019531 385.871094 L 89.625 386.195312 L 89.550781 387.664062 C 89.550781 387.664062 97.410156 385.988281 99.753906 382.417969 C 101.125 380.332031 100.851562 380.992188 100.960938 378.496094 C 101.136719 374.515625 95.453125 367.972656 95.453125 367.972656 L 94.695312 369.234375 " fill-opacity="1" fill-rule="nonzero"/></g><g clip-path="url(#5dd2180c67)"><path fill="#213d1c" d="M 90.6875 366.933594 L 90.804688 369.085938 L 84.5625 367.105469 L 84.929688 369.09375 L 79.128906 368.726562 L 79.96875 370.667969 L 73.949219 372.117188 L 100.878906 380.390625 C 100.933594 380.019531 100.914062 379.527344 100.960938 378.496094 C 101.136719 374.515625 95.453125 367.972656 95.453125 367.972656 L 94.695312 369.234375 L 90.6875 366.933594 " fill-opacity="1" fill-rule="nonzero"/></g><path fill="#213d1c" d="M 105.585938 390.453125 L 104.730469 388.980469 L 113.675781 383.785156 L 114.53125 385.253906 L 105.585938 390.453125 " fill-opacity="1" fill-rule="nonzero"/><path fill="#376a2c" d="M 99.3125 385.929688 L 96.21875 386.898438 L 97.386719 387.863281 L 93.390625 390.136719 L 94.589844 390.894531 L 91.636719 393.710938 L 93.039062 394.203125 L 90.875 398.074219 L 95.355469 398.03125 L 95.101562 399.492188 L 99 398.300781 L 99.078125 399.71875 L 103.015625 397.351562 L 103.285156 398.839844 L 105.648438 396.621094 L 106.375 397.359375 C 106.375 397.359375 109.253906 392.511719 108.527344 389.601562 C 108.101562 387.902344 108.3125 388.355469 107.078125 387.113281 C 105.109375 385.125 99.023438 384.9375 99.023438 384.9375 L 99.3125 385.929688 " fill-opacity="1" fill-rule="nonzero"/><path fill="#213d1c" d="M 96.21875 386.898438 L 97.386719 387.863281 L 93.390625 390.136719 L 94.589844 390.894531 L 91.636719 393.710938 L 93.039062 394.203125 L 90.921875 397.992188 L 108.015625 388.058594 C 107.851562 387.851562 107.585938 387.628906 107.078125 387.113281 C 105.109375 385.125 99.023438 384.9375 99.023438 384.9375 L 99.3125 385.929688 L 96.21875 386.898438 " fill-opacity="1" fill-rule="nonzero"/><path fill="#213d1c" d="M 113.074219 384.394531 L 108.597656 375.074219 L 110.132812 374.335938 L 114.609375 383.65625 L 113.074219 384.394531 " fill-opacity="1" fill-rule="nonzero"/><path fill="#376a2c" d="M 102.398438 374.554688 L 100.382812 372.015625 L 101.890625 371.871094 L 99.863281 367.75 L 101.28125 367.796875 L 100.421875 363.8125 L 101.855469 364.1875 L 102.242188 359.769531 L 105.925781 362.324219 L 106.535156 360.96875 L 109.089844 364.144531 L 109.949219 363.015625 L 111.878906 367.183594 L 112.941406 366.105469 L 113.648438 369.265625 L 114.664062 369.0625 C 114.664062 369.0625 114.320312 374.6875 112.085938 376.691406 C 110.777344 377.859375 111.207031 377.597656 109.484375 377.9375 C 106.742188 378.476562 101.601562 375.214844 101.601562 375.214844 L 102.398438 374.554688 " fill-opacity="1" fill-rule="nonzero"/><path fill="#213d1c" d="M 100.382812 372.015625 L 101.890625 371.871094 L 99.863281 367.75 L 101.28125 367.796875 L 100.421875 363.8125 L 101.855469 364.1875 L 102.234375 359.863281 L 110.792969 377.679688 C 110.542969 377.757812 110.199219 377.796875 109.484375 377.9375 C 106.742188 378.476562 101.601562 375.214844 101.601562 375.214844 L 102.398438 374.554688 L 100.382812 372.015625 " fill-opacity="1" fill-rule="nonzero"/><path fill="#1a414e" d="M 144.980469 266.515625 C 144.480469 267.765625 143.0625 268.371094 141.816406 267.871094 L 109.261719 254.875 C 108.011719 254.378906 107.402344 252.960938 107.902344 251.714844 L 110.792969 244.484375 C 111.292969 243.234375 112.707031 242.628906 113.957031 243.125 L 146.511719 256.121094 C 147.761719 256.621094 148.367188 258.035156 147.871094 259.285156 L 144.980469 266.515625 " fill-opacity="1" fill-rule="nonzero"/><path fill="#1a414e" d="M 315.042969 266.515625 C 315.539062 267.765625 316.957031 268.371094 318.207031 267.871094 L 350.761719 254.875 C 352.011719 254.378906 352.617188 252.960938 352.117188 251.714844 L 349.230469 244.484375 C 348.730469 243.234375 347.3125 242.628906 346.066406 243.125 L 313.511719 256.121094 C 312.261719 256.621094 311.652344 258.035156 312.152344 259.285156 L 315.042969 266.515625 " fill-opacity="1" fill-rule="nonzero"/><path fill="#315c77" d="M 142.179688 234.089844 L 142.179688 348.445312 C 142.179688 355.164062 147.628906 360.613281 154.351562 360.613281 L 305.285156 360.613281 C 312.007812 360.613281 317.457031 355.164062 317.457031 348.445312 L 317.457031 234.089844 L 142.179688 234.089844 " fill-opacity="1" fill-rule="nonzero"/><path fill="#1a414e" d="M 230.007812 360.613281 L 305.285156 360.613281 C 312.007812 360.613281 317.457031 355.164062 317.457031 348.445312 L 317.457031 234.089844 L 230.007812 234.089844 L 230.007812 360.613281 " fill-opacity="1" fill-rule="nonzero"/><path fill="#ffffff" d="M 326.710938 236.519531 C 326.710938 237.867188 325.621094 238.953125 324.273438 238.953125 L 135.363281 238.953125 C 134.019531 238.953125 132.929688 237.867188 132.929688 236.519531 L 132.929688 231.65625 C 132.929688 230.3125 134.019531 229.222656 135.363281 229.222656 L 324.273438 229.222656 C 325.621094 229.222656 326.710938 230.3125 326.710938 231.65625 L 326.710938 236.519531 " fill-opacity="1" fill-rule="nonzero"/><g clip-path="url(#0ca894a518)"><path fill="#1a414e" d="M 218.113281 49.359375 C 218.421875 50.667969 217.609375 51.976562 216.300781 52.285156 L 196.394531 56.957031 C 195.082031 57.261719 193.773438 56.453125 193.464844 55.144531 L 192.578125 51.355469 C 192.269531 50.046875 193.082031 48.734375 194.390625 48.429688 L 214.296875 43.757812 C 215.609375 43.453125 216.917969 44.261719 217.222656 45.570312 L 218.113281 49.359375 " fill-opacity="1" fill-rule="nonzero"/></g><path fill="#1a414e" d="M 211.894531 64.464844 L 205.761719 65.902344 L 202.28125 51.078125 L 208.410156 49.636719 L 211.894531 64.464844 " fill-opacity="1" fill-rule="nonzero"/><path fill="#315c77" d="M 306.65625 71.613281 C 294.804688 55.707031 270.773438 47.148438 208.050781 61.867188 C 147.535156 76.066406 127.617188 94.9375 124.089844 114.457031 L 306.65625 71.613281 " fill-opacity="1" fill-rule="nonzero"/><path fill="#1a414e" d="M 306.65625 71.613281 C 294.804688 55.707031 270.773438 47.148438 208.050781 61.867188 L 215.371094 93.035156 L 306.65625 71.613281 " fill-opacity="1" fill-rule="nonzero"/><path fill="#1a414e" d="M 317.484375 242.707031 L 142.179688 242.707031 L 142.179688 239.304688 L 317.484375 239.304688 L 317.484375 242.707031 " fill-opacity="1" fill-rule="nonzero"/><path fill="#376a2c" d="M 364.558594 111.433594 L 395.730469 79.074219 L 400.320312 80.378906 L 366.148438 113.59375 L 364.558594 111.433594 " fill-opacity="1" fill-rule="nonzero"/><g clip-path="url(#ed9ca05205)"><path fill="#376a2c" d="M 368.8125 113.921875 L 409.335938 80.296875 L 414.253906 83.679688 L 370.371094 116.035156 L 368.8125 113.921875 " fill-opacity="1" fill-rule="nonzero"/></g><path fill="#213d1c" d="M 371.875 118.070312 L 410.394531 94.027344 L 406.214844 88.363281 L 370.371094 116.035156 L 371.875 118.070312 " fill-opacity="1" fill-rule="nonzero"/><path fill="#213d1c" d="M 373.957031 120.890625 L 408.207031 102.539062 L 411.402344 106.871094 L 373.546875 123.613281 L 373.957031 120.890625 " fill-opacity="1" fill-rule="nonzero"/><path fill="#f68733" d="M 371.734375 113.78125 C 365.835938 105.792969 355.960938 103.074219 349.675781 107.710938 C 349.675781 107.710938 265.308594 181.082031 270.644531 188.3125 C 275.984375 195.542969 371.027344 136.640625 371.027344 136.640625 C 377.3125 132.003906 377.632812 121.769531 371.734375 113.78125 " fill-opacity="1" fill-rule="nonzero"/><path fill="#f14635" d="M 371.027344 136.640625 C 377.3125 132.003906 377.632812 121.769531 371.734375 113.78125 L 270.644531 188.3125 C 275.984375 195.542969 371.027344 136.640625 371.027344 136.640625 " fill-opacity="1" fill-rule="nonzero"/><path fill="#f68733" d="M 351.113281 140.152344 L 347.53125 135.292969 L 348.507812 134.570312 L 352.09375 139.429688 L 351.113281 140.152344 " fill-opacity="1" fill-rule="nonzero"/><path fill="#f68733" d="M 332.265625 154.777344 L 328.679688 149.921875 L 329.65625 149.199219 L 333.242188 154.054688 L 332.265625 154.777344 " fill-opacity="1" fill-rule="nonzero"/><path fill="#f68733" d="M 369.921875 126.285156 L 366.335938 121.425781 L 367.316406 120.707031 L 370.898438 125.566406 L 369.921875 126.285156 " fill-opacity="1" fill-rule="nonzero"/><path fill="#f68733" d="M 313.128906 165.742188 L 309.542969 160.882812 L 310.523438 160.160156 L 314.109375 165.019531 L 313.128906 165.742188 " fill-opacity="1" fill-rule="nonzero"/><path fill="#f68733" d="M 364.617188 134.675781 L 361.03125 129.816406 L 362.011719 129.097656 L 365.597656 133.953125 L 364.617188 134.675781 " fill-opacity="1" fill-rule="nonzero"/><path fill="#f68733" d="M 298.308594 177.632812 L 296.113281 174.65625 L 297.089844 173.933594 L 299.285156 176.910156 L 298.308594 177.632812 " fill-opacity="1" fill-rule="nonzero"/><path fill="#f25b23" d="M 331.65625 137.566406 L 328.074219 132.707031 L 329.054688 131.984375 L 332.636719 136.84375 L 331.65625 137.566406 " fill-opacity="1" fill-rule="nonzero"/><path fill="#f25b23" d="M 349.90625 127.863281 L 346.320312 123.003906 L 347.300781 122.28125 L 350.886719 127.140625 L 349.90625 127.863281 " fill-opacity="1" fill-rule="nonzero"/><path fill="#f25b23" d="M 356.898438 115.203125 L 353.316406 110.347656 L 354.292969 109.625 L 357.878906 114.480469 L 356.898438 115.203125 " fill-opacity="1" fill-rule="nonzero"/><path fill="#f25b23" d="M 316.996094 152.125 L 313.410156 147.269531 L 314.390625 146.546875 L 317.972656 151.40625 L 316.996094 152.125 " fill-opacity="1" fill-rule="nonzero"/><path fill="#f25b23" d="M 297.378906 163.257812 L 295.183594 160.285156 L 296.164062 159.5625 L 298.359375 162.535156 L 297.378906 163.257812 " fill-opacity="1" fill-rule="nonzero"/><path fill="#f25b23" d="M 283.222656 179.324219 L 281.027344 176.351562 L 282.003906 175.625 L 284.199219 178.601562 L 283.222656 179.324219 " fill-opacity="1" fill-rule="nonzero"/><path fill="#213d1c" d="M 188.382812 157.300781 C 187.882812 155.101562 128.773438 68.636719 128.773438 68.636719 L 191.707031 155.101562 L 188.382812 157.300781 " fill-opacity="1" fill-rule="nonzero"/><path fill="#376a2c" d="M 190.378906 155.980469 C 189.46875 154.050781 129.105469 57.769531 129.105469 57.769531 L 195.234375 153.457031 L 190.378906 155.980469 " fill-opacity="1" fill-rule="nonzero"/><path fill="#376a2c" d="M 185.085938 156.144531 C 185.085938 156.144531 172.902344 133.042969 159.089844 122.664062 C 149.011719 115.089844 142.257812 114.890625 138.203125 110.394531 C 137.625 109.75 137.300781 107.539062 139.222656 107.082031 C 141.144531 106.628906 155.140625 113.34375 162.976562 121.292969 C 175.054688 133.539062 186.929688 154.253906 186.929688 154.253906 L 185.085938 156.144531 " fill-opacity="1" fill-rule="nonzero"/><path fill="#213d1c" d="M 195.074219 151.226562 C 195.074219 151.226562 183.628906 137.300781 180.714844 125.746094 C 178.585938 117.3125 180.269531 112.96875 178.488281 109.1875 C 178.234375 108.644531 176.914062 107.851562 176.109375 108.949219 C 175.304688 110.050781 175.839844 120.742188 178.800781 127.851562 C 183.367188 138.804688 193.378906 151.894531 193.378906 151.894531 L 195.074219 151.226562 " fill-opacity="1" fill-rule="nonzero"/><path fill="#f4f4d2" d="M 215.671875 155.207031 C 211.742188 149.273438 194.21875 147.351562 194.21875 147.351562 C 191.929688 146.847656 189.824219 144.136719 189.824219 144.136719 L 191.539062 149.125 L 191.464844 149.175781 C 189.96875 148.980469 188.640625 147.257812 188.640625 147.257812 L 189.191406 150.679688 L 189.167969 150.695312 C 186.957031 148.523438 185.066406 143.039062 185.066406 143.039062 C 185.066406 143.039062 184.882812 147.195312 185.296875 150.0625 C 183.316406 149.066406 180.542969 148.390625 180.542969 148.390625 C 180.542969 148.390625 184.167969 150.9375 183.585938 154.386719 C 183.585938 154.386719 178.519531 171.261719 182.449219 177.199219 C 185.828125 182.296875 193.292969 183.601562 200.847656 181.019531 C 201.054688 182.65625 200.136719 185.390625 200.136719 185.390625 C 200.136719 185.390625 202.351562 182.597656 203.34375 180.207031 C 204.363281 181.261719 205.613281 182.277344 205.613281 182.277344 C 205.613281 182.277344 204.921875 180.875 205.074219 179.160156 C 205.222656 179.082031 205.363281 179.003906 205.507812 178.921875 C 206.015625 179.667969 206.644531 180.257812 206.644531 180.257812 L 207.152344 177.90625 L 207.253906 177.84375 C 207.425781 177.722656 207.589844 177.597656 207.757812 177.472656 C 209.636719 178 214.628906 177.035156 214.628906 177.035156 C 214.628906 177.035156 210.878906 177.292969 209.847656 175.785156 C 210.089844 175.570312 210.324219 175.355469 210.554688 175.132812 C 212.324219 175.363281 214.835938 174.875 214.835938 174.875 C 214.835938 174.875 213.144531 174.34375 212.042969 173.597656 C 217.34375 167.660156 219.042969 160.296875 215.671875 155.207031 " fill-opacity="1" fill-rule="nonzero"/><path fill="#d5d5ab" d="M 189.824219 144.136719 L 191.539062 149.125 L 191.464844 149.175781 C 189.96875 148.980469 188.640625 147.257812 188.640625 147.257812 L 189.191406 150.679688 L 189.167969 150.695312 C 186.957031 148.523438 185.066406 143.039062 185.066406 143.039062 C 185.066406 143.039062 185.015625 144.210938 185.027344 145.738281 L 206.953125 178.832031 L 207.152344 177.90625 L 207.253906 177.84375 C 207.425781 177.722656 207.589844 177.597656 207.757812 177.472656 C 209.636719 178 214.628906 177.035156 214.628906 177.035156 C 214.628906 177.035156 210.878906 177.292969 209.847656 175.785156 C 210.089844 175.570312 210.324219 175.355469 210.554688 175.132812 C 212.324219 175.363281 214.835938 174.875 214.835938 174.875 C 214.835938 174.875 213.144531 174.34375 212.042969 173.597656 C 217.34375 167.660156 219.042969 160.296875 215.671875 155.207031 C 211.742188 149.273438 194.21875 147.351562 194.21875 147.351562 C 191.929688 146.847656 189.824219 144.136719 189.824219 144.136719 " fill-opacity="1" fill-rule="nonzero"/><path fill="#376a2c" d="M 137.074219 338.898438 L 130.726562 338.898438 L 130.726562 314.160156 L 137.074219 309.085938 L 137.074219 338.898438 " fill-opacity="1" fill-rule="nonzero"/><path fill="#213d1c" d="M 133.910156 338.898438 L 137.082031 338.898438 L 137.082031 309.085938 L 133.910156 311.621094 L 133.910156 338.898438 " fill-opacity="1" fill-rule="nonzero"/><path fill="#213d1c" d="M 133.910156 326.566406 C 133.910156 326.566406 144.753906 328.222656 147.292969 321.5625 C 149.832031 314.902344 146.285156 329.492188 141.394531 331.394531 C 136.503906 333.296875 133.855469 333.296875 133.855469 333.296875 L 133.910156 326.566406 " fill-opacity="1" fill-rule="nonzero"/><path fill="#213d1c" d="M 134.003906 329.128906 C 134.003906 329.128906 140.953125 330.394531 147.265625 328.507812 C 151.160156 327.347656 156.433594 321.351562 156.433594 321.351562 C 156.433594 321.351562 155.722656 324.371094 149.050781 331.03125 C 143.085938 336.992188 133.910156 333.585938 133.910156 333.585938 L 134.003906 329.128906 " fill-opacity="1" fill-rule="nonzero"/><path fill="#376a2c" d="M 133.855469 326.566406 C 133.855469 326.566406 123.007812 328.222656 120.46875 321.5625 C 117.933594 314.902344 121.476562 329.492188 126.367188 331.394531 C 131.257812 333.296875 133.910156 333.296875 133.910156 333.296875 L 133.855469 326.566406 " fill-opacity="1" fill-rule="nonzero"/><path fill="#376a2c" d="M 133.761719 329.128906 C 133.761719 329.128906 126.808594 330.394531 120.496094 328.507812 C 116.601562 327.347656 111.328125 321.351562 111.328125 321.351562 C 111.328125 321.351562 112.039062 324.371094 118.710938 331.03125 C 124.679688 336.992188 133.855469 333.585938 133.855469 333.585938 L 133.761719 329.128906 " fill-opacity="1" fill-rule="nonzero"/><path fill="#376a2c" d="M 141.011719 334.554688 C 141.011719 335.929688 137.828125 337.046875 133.898438 337.046875 C 129.972656 337.046875 126.785156 335.929688 126.785156 334.554688 C 126.785156 333.175781 129.972656 332.0625 133.898438 332.0625 C 137.828125 332.0625 141.011719 333.175781 141.011719 334.554688 " fill-opacity="1" fill-rule="nonzero"/><path fill="#213d1c" d="M 140.96875 334.554688 C 140.96875 333.175781 137.78125 332.0625 133.855469 332.0625 L 133.855469 337.046875 C 137.78125 337.046875 140.96875 335.929688 140.96875 334.554688 " fill-opacity="1" fill-rule="nonzero"/><path fill="#e13422" d="M 171.140625 354.050781 C 171.140625 373.902344 154.46875 389.996094 133.898438 389.996094 C 113.332031 389.996094 96.660156 373.902344 96.660156 354.050781 C 96.660156 334.199219 113.332031 331.109375 133.898438 331.109375 C 154.46875 331.109375 171.140625 334.199219 171.140625 354.050781 " fill-opacity="1" fill-rule="nonzero"/><path fill="#be2c22" d="M 171.09375 354.050781 C 171.09375 334.199219 154.421875 331.398438 133.855469 331.398438 L 133.855469 389.996094 C 154.421875 389.996094 171.09375 373.902344 171.09375 354.050781 " fill-opacity="1" fill-rule="nonzero"/><path fill="#411942" d="M 353.492188 332.746094 C 361.558594 327.753906 363.859375 321.617188 370.617188 319.605469 C 379.382812 316.996094 384.746094 318.210938 389.117188 328.050781 C 393.3125 337.5 382.789062 349.195312 378.113281 353.9375 C 373.441406 358.675781 362.164062 367.8125 345.3125 377.335938 C 330.582031 385.65625 292.015625 398.78125 275.199219 379.628906 C 258.75 360.886719 270.996094 339.246094 290.191406 334.964844 C 302.46875 332.222656 307.109375 339.398438 319.203125 340.542969 C 332.46875 341.796875 345.519531 337.683594 353.492188 332.746094 " fill-opacity="1" fill-rule="nonzero"/><path fill="#2c0f28" d="M 387.160156 328.472656 C 390.941406 328.742188 391.5 335.601562 384.5625 346.25 C 382.195312 349.894531 379.445312 352.585938 378.113281 353.9375 C 373.441406 358.675781 362.164062 367.8125 345.3125 377.335938 C 330.578125 385.65625 290.988281 398.71875 275.199219 379.628906 C 267.015625 369.730469 267.558594 359.492188 267.558594 359.492188 C 284.921875 366.929688 337.429688 373.535156 370.660156 342.914062 C 380.398438 333.941406 378.746094 327.875 387.160156 328.472656 " fill-opacity="1" fill-rule="nonzero"/><path fill="#213d1c" d="M 389.746094 323.484375 C 389.746094 323.484375 394.882812 321.257812 397.785156 317.492188 C 401.496094 312.671875 401.960938 306.273438 401.960938 306.273438 L 400.027344 305.554688 C 400.027344 305.554688 398.367188 312.160156 396.082031 314.964844 C 393.792969 317.769531 386.433594 320.753906 386.433594 320.753906 L 389.746094 323.484375 " fill-opacity="1" fill-rule="nonzero"/><path fill="#376a2c" d="M 373.855469 316.058594 C 367.683594 318.375 362.125 325.371094 358.046875 324.535156 C 353.96875 323.695312 366.539062 329.902344 374.867188 327.015625 C 376.859375 326.328125 369.835938 334.578125 375 341.066406 C 375 341.066406 374.773438 337.996094 377.757812 335.464844 C 380.984375 332.722656 385.738281 333.191406 385.738281 333.191406 C 385.738281 333.191406 381.070312 343.542969 387.125 348.347656 C 387.125 348.347656 385.265625 346.398438 388.015625 342.421875 C 391.386719 337.550781 392.820312 336.332031 393.152344 331.660156 C 393.875 321.535156 384.074219 312.222656 373.855469 316.058594 " fill-opacity="1" fill-rule="nonzero"/><path fill="#f2ae3b" d="M 295.695312 106.460938 C 293.128906 98.707031 285.84375 97.164062 273.355469 96.617188 C 260.582031 96.058594 243.125 105.890625 243.648438 124.773438 C 244.136719 142.410156 258.386719 152.128906 271.066406 148.117188 C 286.605469 143.207031 284.867188 127.792969 289.839844 124.851562 C 294.8125 121.910156 299.242188 117.167969 295.695312 106.460938 " fill-opacity="1" fill-rule="nonzero"/><path fill="#eb9731" d="M 289.839844 124.851562 C 294.421875 122.140625 298.539062 117.898438 296.382812 108.875 L 243.710938 126.070312 C 244.847656 142.882812 258.699219 152.027344 271.066406 148.117188 C 286.605469 143.207031 284.863281 127.792969 289.839844 124.851562 " fill-opacity="1" fill-rule="nonzero"/><path fill="#c86b2c" d="M 281.679688 120.140625 C 281.257812 120.273438 280.6875 119.675781 280.402344 118.800781 C 280.113281 117.925781 280.222656 117.105469 280.640625 116.96875 C 281.058594 116.832031 281.632812 117.429688 281.917969 118.304688 C 282.203125 119.179688 282.097656 120.003906 281.679688 120.140625 " fill-opacity="1" fill-rule="nonzero"/><path fill="#c86b2c" d="M 264.519531 130.753906 C 264.101562 130.890625 263.53125 130.292969 263.246094 129.417969 C 262.957031 128.542969 263.066406 127.71875 263.484375 127.585938 C 263.902344 127.449219 264.472656 128.046875 264.757812 128.921875 C 265.046875 129.796875 264.9375 130.617188 264.519531 130.753906 " fill-opacity="1" fill-rule="nonzero"/><path fill="#c86b2c" d="M 252.746094 131.339844 C 252.324219 131.476562 251.753906 130.875 251.46875 130 C 251.183594 129.125 251.289062 128.304688 251.707031 128.167969 C 252.125 128.03125 252.695312 128.628906 252.984375 129.507812 C 253.269531 130.378906 253.160156 131.203125 252.746094 131.339844 " fill-opacity="1" fill-rule="nonzero"/><path fill="#c86b2c" d="M 262.996094 143.921875 C 262.582031 144.058594 262.007812 143.460938 261.722656 142.585938 C 261.4375 141.710938 261.542969 140.886719 261.964844 140.753906 C 262.382812 140.617188 262.953125 141.214844 263.238281 142.089844 C 263.523438 142.964844 263.417969 143.785156 262.996094 143.921875 " fill-opacity="1" fill-rule="nonzero"/><path fill="#c86b2c" d="M 271.742188 139.019531 C 271.394531 139.132812 270.917969 138.632812 270.679688 137.90625 C 270.441406 137.175781 270.53125 136.492188 270.878906 136.378906 C 271.226562 136.265625 271.703125 136.765625 271.941406 137.492188 C 272.179688 138.222656 272.089844 138.90625 271.742188 139.019531 " fill-opacity="1" fill-rule="nonzero"/><path fill="#c86b2c" d="M 280.878906 133.417969 C 280.53125 133.53125 280.054688 133.03125 279.816406 132.304688 C 279.578125 131.574219 279.667969 130.894531 280.015625 130.777344 C 280.363281 130.664062 280.839844 131.164062 281.078125 131.890625 C 281.320312 132.621094 281.226562 133.304688 280.878906 133.417969 " fill-opacity="1" fill-rule="nonzero"/><path fill="#c86b2c" d="M 270.953125 121.589844 C 270.605469 121.703125 270.132812 121.207031 269.894531 120.476562 C 269.65625 119.746094 269.746094 119.0625 270.09375 118.949219 C 270.441406 118.835938 270.917969 119.335938 271.15625 120.0625 C 271.394531 120.792969 271.304688 121.476562 270.953125 121.589844 " fill-opacity="1" fill-rule="nonzero"/><path fill="#c86b2c" d="M 293.355469 117.785156 C 293.007812 117.898438 292.53125 117.398438 292.292969 116.671875 C 292.054688 115.941406 292.148438 115.257812 292.496094 115.144531 C 292.84375 115.03125 293.316406 115.53125 293.554688 116.257812 C 293.792969 116.988281 293.707031 117.671875 293.355469 117.785156 " fill-opacity="1" fill-rule="nonzero"/><path fill="#eb9731" d="M 255.738281 116.214844 C 255.320312 116.351562 254.75 115.753906 254.464844 114.878906 C 254.179688 114.003906 254.285156 113.183594 254.703125 113.046875 C 255.121094 112.910156 255.695312 113.507812 255.980469 114.382812 C 256.265625 115.257812 256.15625 116.078125 255.738281 116.214844 " fill-opacity="1" fill-rule="nonzero"/><path fill="#eb9731" d="M 261.675781 106.089844 C 261.257812 106.222656 260.6875 105.625 260.398438 104.75 C 260.113281 103.871094 260.21875 103.054688 260.640625 102.917969 C 261.054688 102.777344 261.628906 103.378906 261.914062 104.253906 C 262.199219 105.128906 262.09375 105.949219 261.675781 106.089844 " fill-opacity="1" fill-rule="nonzero"/><path fill="#eb9731" d="M 273.261719 112.25 C 272.84375 112.386719 272.273438 111.789062 271.984375 110.910156 C 271.699219 110.035156 271.804688 109.214844 272.226562 109.078125 C 272.644531 108.941406 273.214844 109.542969 273.5 110.417969 C 273.789062 111.292969 273.679688 112.113281 273.261719 112.25 " fill-opacity="1" fill-rule="nonzero"/><path fill="#eb9731" d="M 285.1875 103.671875 C 284.773438 103.808594 284.199219 103.210938 283.914062 102.335938 C 283.625 101.460938 283.734375 100.640625 284.152344 100.5 C 284.570312 100.363281 285.140625 100.964844 285.429688 101.839844 C 285.714844 102.714844 285.609375 103.535156 285.1875 103.671875 " fill-opacity="1" fill-rule="nonzero"/><path fill="#eb9731" d="M 276.875 102.878906 C 276.457031 103.015625 275.886719 102.417969 275.597656 101.539062 C 275.3125 100.664062 275.417969 99.84375 275.835938 99.707031 C 276.257812 99.570312 276.828125 100.171875 277.113281 101.046875 C 277.402344 101.921875 277.292969 102.742188 276.875 102.878906 " fill-opacity="1" fill-rule="nonzero"/><g clip-path="url(#5fea7717e8)"><path fill="#f7d017" d="M 259.28125 336.40625 L 258.097656 336.898438 C 254.710938 338.308594 251.6875 339.347656 251.363281 342.761719 C 248.480469 340.667969 245.363281 342.191406 241.695312 343.71875 L 240.375 344.265625 C 236.6875 345.796875 233.402344 346.957031 232.875 350.492188 C 230.214844 348.296875 227.332031 349.6875 223.925781 351.105469 L 222.742188 351.59375 C 217.847656 353.628906 215.53125 359.246094 217.566406 364.140625 C 217.566406 364.140625 229.964844 393.929688 238.363281 402.050781 C 242.175781 405.738281 245.761719 407.664062 250.65625 405.628906 C 251.78125 405.160156 252.597656 404.617188 253.171875 404 C 257.195312 405.394531 262.15625 405.570312 265.335938 404.25 L 266.65625 403.699219 C 269.945312 402.332031 273.679688 398.703125 275.671875 394.898438 C 276.351562 394.832031 277.101562 394.636719 277.941406 394.289062 C 282.835938 392.253906 283.996094 388.351562 284.070312 383.054688 C 284.230469 371.371094 271.832031 341.582031 271.832031 341.582031 C 269.796875 336.6875 264.175781 334.371094 259.28125 336.40625 " fill-opacity="1" fill-rule="nonzero"/></g><path fill="#f0a52b" d="M 259.28125 336.40625 L 258.097656 336.898438 C 254.710938 338.308594 251.6875 339.347656 251.363281 342.761719 C 248.480469 340.667969 245.363281 342.191406 241.695312 343.71875 L 240.882812 344.054688 L 265.84375 404.039062 L 266.65625 403.699219 C 269.945312 402.332031 273.679688 398.703125 275.671875 394.898438 C 276.351562 394.832031 277.101562 394.636719 277.941406 394.289062 C 282.835938 392.253906 283.996094 388.351562 284.070312 383.054688 C 284.230469 371.371094 271.832031 341.582031 271.832031 341.582031 C 269.796875 336.6875 264.175781 334.371094 259.28125 336.40625 " fill-opacity="1" fill-rule="nonzero"/><path fill="#213d1c" d="M 242.625 344.457031 C 242.625 344.457031 243.039062 338.472656 240.964844 333.460938 C 238.3125 327.046875 232.25 322.941406 232.25 322.941406 L 230.433594 324.445312 C 230.433594 324.445312 235.945312 329.875 237.496094 333.703125 C 239.96875 339.816406 238.75 345.644531 238.75 345.644531 L 242.625 344.457031 " fill-opacity="1" fill-rule="nonzero"/><path fill="#376a2c" d="M 248.410156 340.921875 C 242.316406 339.433594 240.59375 337.492188 235.429688 343.808594 C 230.8125 349.457031 232.289062 353.011719 232.289062 353.011719 C 232.289062 353.011719 235.902344 346.847656 243.160156 346.859375 C 250.417969 346.867188 253.953125 345.863281 253.953125 345.863281 C 253.953125 345.863281 251.785156 341.75 248.410156 340.921875 " fill-opacity="1" fill-rule="nonzero"/><path fill="#213d1c" d="M 248.410156 340.921875 C 244.160156 339.882812 242.035156 338.628906 239.390625 340.101562 L 242.21875 346.898438 C 242.527344 346.875 242.835938 346.855469 243.160156 346.859375 C 250.417969 346.867188 253.953125 345.863281 253.953125 345.863281 C 253.953125 345.863281 251.785156 341.75 248.410156 340.921875 " fill-opacity="1" fill-rule="nonzero"/><path fill="#f0a52b" d="M 253.019531 404.21875 L 253 404.230469 C 252.976562 404.234375 252.941406 404.242188 252.894531 404.25 C 252.820312 404.253906 252.714844 404.257812 252.585938 404.234375 C 252.335938 404.191406 251.980469 404.078125 251.585938 403.867188 C 251.378906 403.769531 251.175781 403.632812 250.941406 403.496094 C 250.722656 403.34375 250.480469 403.183594 250.234375 402.996094 C 249.746094 402.625 249.207031 402.183594 248.652344 401.675781 C 248.382812 401.417969 248.085938 401.152344 247.800781 400.867188 C 247.515625 400.582031 247.21875 400.285156 246.917969 399.980469 C 246.328125 399.355469 245.710938 398.691406 245.101562 397.984375 C 244.476562 397.285156 243.863281 396.542969 243.242188 395.785156 L 243.183594 395.710938 L 243.15625 395.675781 L 243.109375 395.613281 L 243 395.46875 L 242.78125 395.175781 C 242.632812 394.980469 242.484375 394.785156 242.335938 394.589844 C 242.1875 394.402344 242.046875 394.171875 241.898438 393.960938 L 241.464844 393.3125 C 240.90625 392.441406 240.371094 391.585938 239.867188 390.714844 C 239.609375 390.28125 239.371094 389.847656 239.152344 389.410156 C 239.042969 389.191406 238.925781 388.976562 238.824219 388.757812 C 238.722656 388.539062 238.628906 388.316406 238.535156 388.097656 C 238.355469 387.664062 238.179688 387.226562 238.042969 386.792969 C 237.898438 386.363281 237.761719 385.9375 237.652344 385.519531 C 237.535156 385.101562 237.433594 384.691406 237.339844 384.292969 C 237.253906 383.894531 237.167969 383.511719 237.101562 383.136719 C 236.964844 382.390625 236.871094 381.703125 236.8125 381.089844 C 236.75 380.472656 236.722656 379.933594 236.714844 379.484375 C 236.707031 379.265625 236.710938 379.0625 236.714844 378.886719 C 236.71875 378.714844 236.71875 378.566406 236.730469 378.445312 C 236.742188 378.203125 236.757812 378.070312 236.757812 378.070312 L 237.042969 378.007812 C 237.042969 378.007812 237.105469 378.121094 237.230469 378.324219 C 237.351562 378.53125 237.519531 378.835938 237.730469 379.222656 C 237.9375 379.609375 238.1875 380.078125 238.457031 380.617188 C 238.726562 381.15625 239.027344 381.761719 239.335938 382.425781 C 239.652344 383.085938 239.980469 383.800781 240.320312 384.558594 C 240.484375 384.9375 240.671875 385.320312 240.839844 385.722656 C 241.007812 386.121094 241.183594 386.527344 241.351562 386.941406 C 241.671875 387.78125 242 388.644531 242.335938 389.527344 C 242.664062 390.40625 243.054688 391.289062 243.480469 392.125 L 243.804688 392.738281 C 243.917969 392.945312 244.011719 393.148438 244.148438 393.359375 C 244.277344 393.570312 244.402344 393.78125 244.53125 393.988281 L 244.722656 394.300781 L 244.828125 394.476562 L 244.832031 394.484375 C 244.851562 394.511719 244.816406 394.460938 244.820312 394.46875 L 244.84375 394.507812 L 244.894531 394.582031 C 245.433594 395.375 245.933594 396.183594 246.457031 396.933594 C 246.964844 397.695312 247.488281 398.402344 247.972656 399.085938 C 248.226562 399.421875 248.472656 399.746094 248.707031 400.058594 C 248.945312 400.371094 249.191406 400.660156 249.417969 400.945312 C 249.882812 401.503906 250.324219 402.003906 250.734375 402.425781 C 250.9375 402.636719 251.140625 402.8125 251.324219 402.992188 C 251.515625 403.148438 251.691406 403.308594 251.855469 403.429688 C 252.1875 403.683594 252.472656 403.824219 252.664062 403.894531 C 252.761719 403.925781 252.832031 403.9375 252.875 403.941406 L 252.90625 403.945312 L 252.929688 403.941406 L 253.019531 404.21875 " fill-opacity="1" fill-rule="nonzero"/><path fill="#f7d017" d="M 275.664062 394.492188 L 275.683594 394.480469 L 275.703125 394.453125 C 275.730469 394.417969 275.773438 394.363281 275.816406 394.269531 C 275.902344 394.082031 276.007812 393.78125 276.054688 393.367188 C 276.089844 393.164062 276.097656 392.929688 276.121094 392.683594 C 276.125 392.425781 276.144531 392.15625 276.136719 391.863281 C 276.128906 391.277344 276.082031 390.613281 276.015625 389.890625 C 275.972656 389.527344 275.941406 389.148438 275.886719 388.757812 C 275.832031 388.371094 275.773438 387.96875 275.714844 387.554688 C 275.570312 386.730469 275.441406 385.859375 275.257812 384.960938 C 275.09375 384.0625 274.875 383.140625 274.6875 382.195312 L 274.671875 382.109375 L 274.660156 382.066406 C 274.660156 382.054688 274.671875 382.113281 274.664062 382.085938 L 274.660156 382.074219 L 274.65625 382.050781 L 274.613281 381.875 L 274.523438 381.519531 C 274.46875 381.28125 274.40625 381.042969 274.347656 380.804688 C 274.292969 380.558594 274.21875 380.347656 274.148438 380.125 L 273.941406 379.460938 C 273.648438 378.570312 273.296875 377.671875 272.902344 376.820312 C 272.515625 375.960938 272.132812 375.117188 271.765625 374.296875 C 271.589844 373.886719 271.425781 373.476562 271.261719 373.074219 C 271.09375 372.675781 270.953125 372.273438 270.800781 371.886719 C 270.507812 371.113281 270.226562 370.375 269.980469 369.683594 C 269.726562 369 269.511719 368.359375 269.316406 367.785156 C 269.125 367.214844 268.96875 366.710938 268.839844 366.289062 C 268.71875 365.867188 268.617188 365.535156 268.558594 365.300781 C 268.496094 365.070312 268.464844 364.945312 268.464844 364.945312 L 268.710938 364.789062 C 268.710938 364.789062 268.816406 364.867188 268.996094 365.03125 C 269.089844 365.109375 269.195312 365.214844 269.320312 365.332031 C 269.445312 365.453125 269.59375 365.59375 269.746094 365.753906 C 270.058594 366.074219 270.417969 366.476562 270.8125 366.953125 C 271.207031 367.429688 271.628906 367.980469 272.0625 368.605469 C 272.28125 368.914062 272.488281 369.246094 272.714844 369.585938 C 272.933594 369.933594 273.148438 370.296875 273.363281 370.671875 C 273.585938 371.046875 273.789062 371.441406 273.996094 371.847656 C 274.203125 372.253906 274.390625 372.679688 274.570312 373.121094 C 274.660156 373.339844 274.75 373.558594 274.835938 373.785156 C 274.917969 374.011719 274.992188 374.246094 275.066406 374.480469 C 275.222656 374.945312 275.363281 375.417969 275.488281 375.90625 C 275.75 376.875 275.980469 377.859375 276.203125 378.871094 L 276.359375 379.636719 C 276.40625 379.890625 276.46875 380.152344 276.496094 380.390625 C 276.53125 380.632812 276.566406 380.875 276.601562 381.117188 L 276.65625 381.480469 L 276.679688 381.660156 L 276.691406 381.734375 L 276.695312 381.78125 L 276.707031 381.871094 C 276.804688 382.847656 276.902344 383.804688 276.957031 384.742188 C 277.027344 385.671875 277.066406 386.578125 277.09375 387.433594 C 277.09375 387.863281 277.097656 388.285156 277.097656 388.6875 C 277.101562 389.09375 277.078125 389.484375 277.070312 389.859375 C 277.042969 390.613281 276.976562 391.304688 276.894531 391.914062 C 276.855469 392.21875 276.792969 392.503906 276.75 392.765625 C 276.683594 393.03125 276.636719 393.269531 276.558594 393.484375 C 276.433594 393.914062 276.261719 394.242188 276.113281 394.453125 C 276.039062 394.558594 275.964844 394.632812 275.90625 394.683594 C 275.871094 394.710938 275.839844 394.730469 275.820312 394.742188 L 275.800781 394.75 L 275.664062 394.492188 " fill-opacity="1" fill-rule="nonzero"/><path fill="#f4f4d2" d="M 238.570312 187 C 233.960938 189.203125 227.832031 185.972656 224.878906 179.792969 C 221.929688 173.609375 223.273438 166.816406 227.882812 164.617188 C 232.496094 162.417969 238.625 165.644531 241.574219 171.828125 C 244.527344 178.007812 243.183594 184.800781 238.570312 187 Z M 225.746094 161.640625 C 220.164062 164.304688 218.535156 172.527344 222.109375 180.011719 C 225.679688 187.492188 233.101562 191.402344 238.683594 188.738281 C 244.265625 186.074219 245.894531 177.851562 242.320312 170.371094 C 238.746094 162.886719 231.328125 158.980469 225.746094 161.640625 " fill-opacity="1" fill-rule="nonzero"/><path fill="#f4f4d2" d="M 257.3125 174.253906 C 253.851562 175.90625 249.246094 173.484375 247.03125 168.839844 C 244.8125 164.199219 245.824219 159.097656 249.285156 157.445312 C 252.75 155.792969 257.355469 158.214844 259.570312 162.859375 C 261.785156 167.5 260.773438 172.601562 257.3125 174.253906 Z M 247.679688 155.210938 C 243.488281 157.210938 242.265625 163.386719 244.949219 169.003906 C 247.632812 174.625 253.207031 177.558594 257.398438 175.558594 C 261.589844 173.558594 262.808594 167.382812 260.128906 161.765625 C 257.445312 156.144531 251.871094 153.210938 247.679688 155.210938 " fill-opacity="1" fill-rule="nonzero"/><path fill="#f4f4d2" d="M 242.050781 200.175781 C 238.640625 202.976562 232.824219 201.542969 229.0625 196.964844 C 225.300781 192.390625 225.019531 186.410156 228.429688 183.609375 C 231.84375 180.808594 237.660156 182.246094 241.417969 186.820312 C 245.179688 191.394531 245.464844 197.375 242.050781 200.175781 Z M 226.019531 181.554688 C 221.886719 184.949219 222.230469 192.1875 226.78125 197.726562 C 231.335938 203.261719 238.375 205.003906 242.503906 201.609375 C 246.636719 198.21875 246.292969 190.976562 241.742188 185.441406 C 237.1875 179.90625 230.152344 178.164062 226.019531 181.554688 " fill-opacity="1" fill-rule="nonzero"/><path fill="#e13422" d="M 336.105469 182.886719 C 336.105469 187.117188 332.675781 190.546875 328.445312 190.546875 C 327.144531 190.546875 325.921875 190.21875 324.851562 189.648438 C 323.449219 191.140625 321.464844 192.074219 319.261719 192.074219 C 315.03125 192.074219 311.597656 188.644531 311.597656 184.414062 C 311.597656 183.054688 311.957031 181.773438 312.582031 180.667969 C 311.183594 179.28125 310.316406 177.355469 310.316406 175.230469 C 310.316406 171 313.746094 167.574219 317.976562 167.574219 C 320.089844 167.574219 322.003906 168.425781 323.390625 169.8125 C 324.773438 168.425781 326.6875 167.574219 328.800781 167.574219 C 333.03125 167.574219 336.460938 171 336.460938 175.230469 C 336.460938 176.753906 336.015625 178.175781 335.246094 179.367188 C 335.792969 180.417969 336.105469 181.617188 336.105469 182.886719 Z M 340.566406 173.757812 C 340.566406 168.175781 336.035156 163.648438 330.449219 163.648438 C 327.660156 163.648438 325.132812 164.777344 323.300781 166.601562 C 321.472656 164.777344 318.945312 163.648438 316.152344 163.648438 C 310.566406 163.648438 306.039062 168.175781 306.039062 173.757812 C 306.039062 176.566406 307.179688 179.105469 309.03125 180.9375 C 308.207031 182.398438 307.734375 184.089844 307.734375 185.886719 C 307.734375 191.472656 312.261719 196 317.847656 196 C 320.761719 196 323.386719 194.769531 325.230469 192.800781 C 326.644531 193.550781 328.261719 193.980469 329.980469 193.980469 C 335.566406 193.980469 340.09375 189.453125 340.09375 183.867188 C 340.09375 182.191406 339.683594 180.609375 338.960938 179.21875 C 339.972656 177.644531 340.566406 175.769531 340.566406 173.757812 " fill-opacity="1" fill-rule="nonzero"/><path fill="#e13422" d="M 288.4375 217.320312 C 287.089844 220.113281 283.738281 221.285156 280.941406 219.941406 C 280.085938 219.527344 279.378906 218.925781 278.855469 218.210938 C 277.457031 218.75 275.847656 218.734375 274.390625 218.03125 C 271.597656 216.6875 270.421875 213.335938 271.765625 210.542969 C 272.199219 209.644531 272.84375 208.914062 273.609375 208.378906 C 273.125 207.019531 273.164062 205.472656 273.839844 204.070312 C 275.183594 201.277344 278.539062 200.101562 281.335938 201.445312 C 282.730469 202.117188 283.722656 203.289062 284.195312 204.644531 C 285.550781 204.171875 287.085938 204.214844 288.484375 204.886719 C 291.277344 206.230469 292.453125 209.582031 291.105469 212.375 C 290.621094 213.378906 289.878906 214.175781 288.988281 214.71875 C 289.015625 215.589844 288.839844 216.480469 288.4375 217.320312 Z M 294.285156 212.707031 C 296.058594 209.019531 294.507812 204.589844 290.820312 202.816406 C 288.976562 201.929688 286.949219 201.871094 285.160156 202.496094 C 284.53125 200.707031 283.222656 199.160156 281.378906 198.273438 C 277.691406 196.5 273.257812 198.050781 271.480469 201.738281 C 270.589844 203.59375 270.539062 205.632812 271.175781 207.429688 C 270.164062 208.132812 269.316406 209.097656 268.742188 210.289062 C 266.96875 213.976562 268.519531 218.40625 272.210938 220.179688 C 274.132812 221.105469 276.257812 221.125 278.101562 220.410156 C 278.796875 221.355469 279.730469 222.152344 280.863281 222.699219 C 284.550781 224.472656 288.984375 222.921875 290.757812 219.234375 C 291.292969 218.128906 291.523438 216.953125 291.488281 215.804688 C 292.660156 215.085938 293.644531 214.035156 294.285156 212.707031 " fill-opacity="1" fill-rule="nonzero"/><path fill="#f0a52b" d="M 119.027344 202.757812 C 119.027344 206.988281 115.59375 210.414062 111.363281 210.414062 C 110.0625 210.414062 108.839844 210.089844 107.769531 209.519531 C 106.371094 211.011719 104.386719 211.941406 102.179688 211.941406 C 97.949219 211.941406 94.519531 208.515625 94.519531 204.285156 C 94.519531 202.921875 94.875 201.644531 95.5 200.535156 C 94.101562 199.148438 93.234375 197.226562 93.234375 195.101562 C 93.234375 190.871094 96.664062 187.445312 100.894531 187.445312 C 103.007812 187.445312 104.921875 188.296875 106.308594 189.683594 C 107.691406 188.296875 109.605469 187.445312 111.722656 187.445312 C 115.949219 187.445312 119.382812 190.871094 119.382812 195.101562 C 119.382812 196.625 118.933594 198.042969 118.167969 199.234375 C 118.714844 200.289062 119.027344 201.488281 119.027344 202.757812 Z M 123.484375 193.628906 C 123.484375 188.042969 118.957031 183.519531 113.367188 183.519531 C 110.574219 183.519531 108.050781 184.648438 106.21875 186.472656 C 104.390625 184.648438 101.863281 183.519531 99.074219 183.519531 C 93.484375 183.519531 88.957031 188.042969 88.957031 193.628906 C 88.957031 196.4375 90.101562 198.976562 91.949219 200.804688 C 91.125 202.269531 90.652344 203.957031 90.652344 205.757812 C 90.652344 211.34375 95.179688 215.867188 100.769531 215.867188 C 103.679688 215.867188 106.304688 214.636719 108.152344 212.667969 C 109.566406 213.421875 111.183594 213.851562 112.898438 213.851562 C 118.484375 213.851562 123.015625 209.324219 123.015625 203.738281 C 123.015625 202.0625 122.601562 200.480469 121.878906 199.089844 C 122.894531 197.515625 123.484375 195.640625 123.484375 193.628906 " fill-opacity="1" fill-rule="nonzero"/><path fill="#213d1c" d="M 140.230469 203.421875 L 116.078125 178.078125 L 117.308594 176.902344 L 141.464844 202.246094 L 140.230469 203.421875 " fill-opacity="1" fill-rule="nonzero"/><path fill="#376a2c" d="M 120.636719 166.382812 L 117.824219 161.671875 L 116.691406 163.972656 L 111.378906 158.292969 L 110.597656 160.5625 L 104.804688 156.8125 L 104.542969 159.308594 L 97.3125 157.273438 L 99.144531 164.632812 L 96.636719 164.785156 L 100.136719 170.730469 L 97.832031 171.414062 L 103.277344 176.964844 L 100.929688 177.996094 L 105.515625 181.007812 L 104.582031 182.492188 C 104.582031 182.492188 113.699219 185.324219 118.207031 182.984375 C 120.84375 181.617188 120.171875 182.144531 121.738281 179.621094 C 124.238281 175.601562 122.15625 165.515625 122.15625 165.515625 L 120.636719 166.382812 " fill-opacity="1" fill-rule="nonzero"/><path fill="#213d1c" d="M 117.824219 161.671875 L 116.691406 163.972656 L 111.378906 158.292969 L 110.597656 160.5625 L 104.804688 156.8125 L 104.542969 159.308594 L 97.464844 157.316406 L 120.550781 181.535156 C 120.824219 181.1875 121.089844 180.667969 121.738281 179.621094 C 124.238281 175.601562 122.15625 165.515625 122.15625 165.515625 L 120.636719 166.382812 L 117.824219 161.671875 " fill-opacity="1" fill-rule="nonzero"/><path fill="#213d1c" d="M 119.574219 194.539062 L 119.546875 192.835938 L 131.835938 192.648438 L 131.863281 194.351562 L 119.574219 194.539062 " fill-opacity="1" fill-rule="nonzero"/><path fill="#376a2c" d="M 115.707031 186.367188 L 111.9375 185.574219 L 112.585938 187.253906 L 107.125 187.285156 L 107.921875 188.765625 L 103.226562 189.964844 L 104.394531 191.289062 L 99.898438 194.046875 L 104.566406 196.605469 L 103.453125 197.972656 L 108.183594 199.003906 L 107.441406 200.515625 L 112.898438 200.351562 L 112.3125 202.054688 L 116.050781 201.125 L 116.371094 202.3125 C 116.371094 202.3125 122.175781 198.964844 123.117188 195.527344 C 123.664062 193.515625 123.617188 194.113281 123.0625 192.105469 C 122.179688 188.902344 115.984375 185.167969 115.984375 185.167969 L 115.707031 186.367188 " fill-opacity="1" fill-rule="nonzero"/><path fill="#213d1c" d="M 111.9375 185.574219 L 112.585938 187.253906 L 107.125 187.285156 L 107.921875 188.765625 L 103.226562 189.964844 L 104.394531 191.289062 L 99.992188 193.988281 L 123.484375 193.628906 C 123.433594 193.320312 123.292969 192.9375 123.0625 192.105469 C 122.179688 188.902344 115.984375 185.167969 115.984375 185.167969 L 115.707031 186.367188 L 111.9375 185.574219 " fill-opacity="1" fill-rule="nonzero"/><path fill="#213d1c" d="M 132.71875 192.894531 L 131.015625 192.785156 L 131.800781 180.523438 L 133.5 180.632812 L 132.71875 192.894531 " fill-opacity="1" fill-rule="nonzero"/><path fill="#376a2c" d="M 125.519531 176.375 L 124.90625 172.574219 L 126.554688 173.300781 L 126.851562 167.851562 L 128.296875 168.71875 L 129.722656 164.09375 L 130.988281 165.320312 L 133.960938 160.964844 L 136.296875 165.75 L 137.714844 164.703125 L 138.511719 169.480469 L 140.0625 168.808594 L 139.632812 174.25 L 141.363281 173.746094 L 140.253906 177.4375 L 141.421875 177.8125 C 141.421875 177.8125 137.792969 183.441406 134.316406 184.214844 C 132.28125 184.667969 132.878906 184.648438 130.898438 183.996094 C 127.738281 182.960938 124.308594 176.59375 124.308594 176.59375 L 125.519531 176.375 " fill-opacity="1" fill-rule="nonzero"/><path fill="#213d1c" d="M 124.90625 172.574219 L 126.554688 173.300781 L 126.851562 167.851562 L 128.296875 168.71875 L 129.722656 164.09375 L 130.988281 165.320312 L 133.898438 161.058594 L 132.402344 184.492188 C 132.09375 184.429688 131.71875 184.265625 130.898438 184 C 127.738281 182.960938 124.308594 176.597656 124.308594 176.597656 L 125.519531 176.375 L 124.90625 172.574219 " fill-opacity="1" fill-rule="nonzero"/><path fill="#213d1c" d="M 124.300781 388.476562 L 96.128906 379.824219 L 96.628906 378.195312 L 124.804688 386.851562 L 124.300781 388.476562 " fill-opacity="1" fill-rule="nonzero"/><path fill="#f68733" d="M 213 210.488281 C 213 217.308594 207.464844 222.84375 200.636719 222.84375 C 193.808594 222.84375 188.277344 217.308594 188.277344 210.488281 C 188.277344 203.660156 193.808594 198.128906 200.636719 198.128906 C 207.464844 198.128906 213 203.660156 213 210.488281 " fill-opacity="1" fill-rule="nonzero"/><path fill="#f14635" d="M 205.585938 210.984375 C 205.585938 213.917969 203.210938 216.292969 200.277344 216.292969 C 197.34375 216.292969 194.964844 213.917969 194.964844 210.984375 C 194.964844 208.050781 197.34375 205.675781 200.277344 205.675781 C 203.210938 205.675781 205.585938 208.050781 205.585938 210.984375 " fill-opacity="1" fill-rule="nonzero"/></svg>